<?xml version="1.0" encoding="UTF-8"?>
<svg width="700pt" height="700pt" version="1.1" viewBox="0 0 700 700" xmlns="http://www.w3.org/2000/svg" xmlns:xlink="http://www.w3.org/1999/xlink">
 <defs>
  <symbol id="t" overflow="visible">
   <path d="m18.766-1.125c-0.96875 0.5-1.9805 0.875-3.0312 1.125-1.043 0.25781-2.1367 0.39062-3.2812 0.39062-3.3984 0-6.0898-0.94531-8.0781-2.8438-1.9922-1.9062-2.9844-4.4844-2.9844-7.7344 0-3.2578 0.99219-5.8359 2.9844-7.7344 1.9883-1.9062 4.6797-2.8594 8.0781-2.8594 1.1445 0 2.2383 0.13281 3.2812 0.39062 1.0508 0.25 2.0625 0.625 3.0312 1.125v4.2188c-0.98047-0.65625-1.9453-1.1406-2.8906-1.4531-0.94922-0.3125-1.9492-0.46875-3-0.46875-1.875 0-3.3516 0.60547-4.4219 1.8125-1.0742 1.1992-1.6094 2.8555-1.6094 4.9688 0 2.1055 0.53516 3.7617 1.6094 4.9688 1.0703 1.1992 2.5469 1.7969 4.4219 1.7969 1.0508 0 2.0508-0.14844 3-0.45312 0.94531-0.3125 1.9102-0.80078 2.8906-1.4688z"/>
  </symbol>
  <symbol id="c" overflow="visible">
   <path d="m13.734-11.141c-0.4375-0.19531-0.87109-0.34375-1.2969-0.4375-0.41797-0.10156-0.83984-0.15625-1.2656-0.15625-1.2617 0-2.2305 0.40625-2.9062 1.2188-0.67969 0.80469-1.0156 1.9531-1.0156 3.4531v7.0625h-4.8906v-15.312h4.8906v2.5156c0.625-1 1.3438-1.7266 2.1562-2.1875 0.82031-0.46875 1.8008-0.70312 2.9375-0.70312 0.16406 0 0.34375 0.011719 0.53125 0.03125 0.19531 0.011719 0.47656 0.039062 0.84375 0.078125z"/>
  </symbol>
  <symbol id="a" overflow="visible">
   <path d="m17.641-7.7031v1.4062h-11.453c0.125 1.1484 0.53906 2.0078 1.25 2.5781 0.70703 0.57422 1.7031 0.85938 2.9844 0.85938 1.0312 0 2.082-0.14844 3.1562-0.45312 1.082-0.3125 2.1914-0.77344 3.3281-1.3906v3.7656c-1.1562 0.4375-2.3125 0.76562-3.4688 0.98438-1.1562 0.22656-2.3125 0.34375-3.4688 0.34375-2.7734 0-4.9297-0.70312-6.4688-2.1094-1.5312-1.4062-2.2969-3.3789-2.2969-5.9219 0-2.5 0.75391-4.4609 2.2656-5.8906 1.5078-1.4375 3.582-2.1562 6.2188-2.1562 2.4062 0 4.332 0.73047 5.7812 2.1875 1.4453 1.4492 2.1719 3.3828 2.1719 5.7969zm-5.0312-1.625c0-0.92578-0.27344-1.6719-0.8125-2.2344-0.54297-0.57031-1.25-0.85938-2.125-0.85938-0.94922 0-1.7188 0.26562-2.3125 0.79688s-0.96484 1.2969-1.1094 2.2969z"/>
  </symbol>
  <symbol id="f" overflow="visible">
   <path d="m9.2188-6.8906c-1.0234 0-1.793 0.17188-2.3125 0.51562-0.51172 0.34375-0.76562 0.85547-0.76562 1.5312 0 0.625 0.20703 1.1172 0.625 1.4688 0.41406 0.34375 0.98828 0.51562 1.7188 0.51562 0.92578 0 1.7031-0.32812 2.3281-0.98438 0.63281-0.66406 0.95312-1.4922 0.95312-2.4844v-0.5625zm7.4688-1.8438v8.7344h-4.9219v-2.2656c-0.65625 0.92969-1.3984 1.6055-2.2188 2.0312-0.82422 0.41406-1.8242 0.625-3 0.625-1.5859 0-2.8711-0.45703-3.8594-1.375-0.99219-0.92578-1.4844-2.1289-1.4844-3.6094 0-1.7891 0.61328-3.1016 1.8438-3.9375 1.2383-0.84375 3.1797-1.2656 5.8281-1.2656h2.8906v-0.39062c0-0.76953-0.30859-1.332-0.92188-1.6875-0.61719-0.36328-1.5703-0.54688-2.8594-0.54688-1.0547 0-2.0312 0.10547-2.9375 0.3125-0.89844 0.21094-1.7305 0.52344-2.5 0.9375v-3.7344c1.0391-0.25 2.0859-0.44141 3.1406-0.57812 1.0625-0.13281 2.125-0.20312 3.1875-0.20312 2.7578 0 4.75 0.54688 5.9688 1.6406 1.2266 1.0859 1.8438 2.8555 1.8438 5.3125z"/>
  </symbol>
  <symbol id="b" overflow="visible">
   <path d="m7.7031-19.656v4.3438h5.0469v3.5h-5.0469v6.5c0 0.71094 0.14062 1.1875 0.42188 1.4375s0.83594 0.375 1.6719 0.375h2.5156v3.5h-4.1875c-1.9375 0-3.3125-0.39844-4.125-1.2031-0.80469-0.8125-1.2031-2.1797-1.2031-4.1094v-6.5h-2.4219v-3.5h2.4219v-4.3438z"/>
  </symbol>
  <symbol id="e" overflow="visible">
   <path d="m12.766-13.078v-8.2031h4.9219v21.281h-4.9219v-2.2188c-0.66797 0.90625-1.4062 1.5703-2.2188 1.9844s-1.7578 0.625-2.8281 0.625c-1.8867 0-3.4336-0.75-4.6406-2.25-1.2109-1.5-1.8125-3.4258-1.8125-5.7812 0-2.3633 0.60156-4.2969 1.8125-5.7969 1.207-1.5 2.7539-2.25 4.6406-2.25 1.0625 0 2 0.21484 2.8125 0.64062 0.82031 0.42969 1.5664 1.0859 2.2344 1.9688zm-3.2188 9.9219c1.0391 0 1.8359-0.37891 2.3906-1.1406 0.55078-0.76953 0.82812-1.8828 0.82812-3.3438 0-1.457-0.27734-2.5664-0.82812-3.3281-0.55469-0.76953-1.3516-1.1562-2.3906-1.1562-1.043 0-1.8398 0.38672-2.3906 1.1562-0.55469 0.76172-0.82812 1.8711-0.82812 3.3281 0 1.4609 0.27344 2.5742 0.82812 3.3438 0.55078 0.76172 1.3477 1.1406 2.3906 1.1406z"/>
  </symbol>
  <symbol id="i" overflow="visible">
   <path d="m10.5-3.1562c1.0508 0 1.8516-0.37891 2.4062-1.1406 0.55078-0.76953 0.82812-1.8828 0.82812-3.3438 0-1.457-0.27734-2.5664-0.82812-3.3281-0.55469-0.76953-1.3555-1.1562-2.4062-1.1562-1.0547 0-1.8594 0.38672-2.4219 1.1562-0.55469 0.77344-0.82812 1.8828-0.82812 3.3281 0 1.4492 0.27344 2.5586 0.82812 3.3281 0.5625 0.77344 1.3672 1.1562 2.4219 1.1562zm-3.25-9.9219c0.67578-0.88281 1.4219-1.5391 2.2344-1.9688 0.82031-0.42578 1.7656-0.64062 2.8281-0.64062 1.8945 0 3.4453 0.75 4.6562 2.25 1.207 1.5 1.8125 3.4336 1.8125 5.7969 0 2.3555-0.60547 4.2812-1.8125 5.7812-1.2109 1.5-2.7617 2.25-4.6562 2.25-1.0625 0-2.0078-0.21094-2.8281-0.625-0.8125-0.42578-1.5586-1.0859-2.2344-1.9844v2.2188h-4.8906v-21.281h4.8906z"/>
  </symbol>
  <symbol id="h" overflow="visible">
   <path d="m0.34375-15.312h4.8906l4.125 10.391 3.5-10.391h4.8906l-6.4375 16.766c-0.64844 1.6953-1.4023 2.8828-2.2656 3.5625-0.86719 0.6875-2 1.0312-3.4062 1.0312h-2.8438v-3.2188h1.5312c0.83203 0 1.4375-0.13672 1.8125-0.40625 0.38281-0.26172 0.67969-0.73047 0.89062-1.4062l0.14062-0.42188z"/>
  </symbol>
  <symbol id="g" overflow="visible">
   <path d="m2.5781-20.406h5.25v7.7656h7.7656v-7.7656h5.2656v20.406h-5.2656v-8.6562h-7.7656v8.6562h-5.25z"/>
  </symbol>
  <symbol id="s" overflow="visible">
   <path d="m2.3594-15.312h4.8906v15.312h-4.8906zm0-5.9688h4.8906v4h-4.8906z"/>
  </symbol>
  <symbol id="r" overflow="visible">
   <path d="m12.422-21.281v3.2188h-2.7031c-0.6875 0-1.1719 0.125-1.4531 0.375-0.27344 0.25-0.40625 0.6875-0.40625 1.3125v1.0625h4.1875v3.5h-4.1875v11.812h-4.8906v-11.812h-2.4375v-3.5h2.4375v-1.0625c0-1.6641 0.46094-2.8984 1.3906-3.7031 0.92578-0.80078 2.3672-1.2031 4.3281-1.2031z"/>
  </symbol>
  <symbol id="d" overflow="visible">
   <path d="m9.6406-12.188c-1.0859 0-1.9141 0.39062-2.4844 1.1719-0.57422 0.78125-0.85938 1.9062-0.85938 3.375s0.28516 2.5938 0.85938 3.375c0.57031 0.77344 1.3984 1.1562 2.4844 1.1562 1.0625 0 1.875-0.38281 2.4375-1.1562 0.57031-0.78125 0.85938-1.9062 0.85938-3.375s-0.28906-2.5938-0.85938-3.375c-0.5625-0.78125-1.375-1.1719-2.4375-1.1719zm0-3.5c2.6328 0 4.6914 0.71484 6.1719 2.1406 1.4766 1.418 2.2188 3.3867 2.2188 5.9062 0 2.5117-0.74219 4.4805-2.2188 5.9062-1.4805 1.418-3.5391 2.125-6.1719 2.125-2.6484 0-4.7148-0.70703-6.2031-2.125-1.4922-1.4258-2.2344-3.3945-2.2344-5.9062 0-2.5195 0.74219-4.4883 2.2344-5.9062 1.4883-1.4258 3.5547-2.1406 6.2031-2.1406z"/>
  </symbol>
  <symbol id="q" overflow="visible">
   <path d="m16.547-12.766c0.61328-0.94531 1.3477-1.6719 2.2031-2.1719 0.85156-0.5 1.7891-0.75 2.8125-0.75 1.7578 0 3.0977 0.54688 4.0156 1.6406 0.92578 1.0859 1.3906 2.6562 1.3906 4.7188v9.3281h-4.9219v-7.9844-0.35938c0.007813-0.13281 0.015625-0.32031 0.015625-0.5625 0-1.082-0.16406-1.8633-0.48438-2.3438-0.3125-0.48828-0.82422-0.73438-1.5312-0.73438-0.92969 0-1.6484 0.38672-2.1562 1.1562-0.51172 0.76172-0.77344 1.8672-0.78125 3.3125v7.5156h-4.9219v-7.9844c0-1.6953-0.14844-2.7852-0.4375-3.2656-0.29297-0.48828-0.8125-0.73438-1.5625-0.73438-0.9375 0-1.6641 0.38672-2.1719 1.1562-0.51172 0.76172-0.76562 1.8594-0.76562 3.2969v7.5312h-4.9219v-15.312h4.9219v2.2344c0.60156-0.86328 1.2891-1.5156 2.0625-1.9531 0.78125-0.4375 1.6406-0.65625 2.5781-0.65625 1.0625 0 2 0.25781 2.8125 0.76562 0.8125 0.51172 1.4258 1.2305 1.8438 2.1562z"/>
  </symbol>
  <symbol id="p" overflow="visible">
   <path d="m17.75-9.3281v9.3281h-4.9219v-7.1094c0-1.3438-0.03125-2.2656-0.09375-2.7656s-0.16797-0.86719-0.3125-1.1094c-0.1875-0.3125-0.44922-0.55469-0.78125-0.73438-0.32422-0.17578-0.69531-0.26562-1.1094-0.26562-1.0234 0-1.8242 0.39844-2.4062 1.1875-0.58594 0.78125-0.875 1.8711-0.875 3.2656v7.5312h-4.8906v-21.281h4.8906v8.2031c0.73828-0.88281 1.5195-1.5391 2.3438-1.9688 0.83203-0.42578 1.75-0.64062 2.75-0.64062 1.7695 0 3.1133 0.54688 4.0312 1.6406 0.91406 1.0859 1.375 2.6562 1.375 4.7188z"/>
  </symbol>
  <symbol id="o" overflow="visible">
   <path d="m2.5781-20.406h5.875l7.4219 14v-14h4.9844v20.406h-5.875l-7.4219-14v14h-4.9844z"/>
  </symbol>
  <symbol id="n" overflow="visible">
   <path d="m2.1875-5.9688v-9.3438h4.9219v1.5312c0 0.83594-0.007813 1.875-0.015625 3.125-0.011719 1.25-0.015625 2.0859-0.015625 2.5 0 1.2422 0.03125 2.1328 0.09375 2.6719 0.070313 0.54297 0.17969 0.93359 0.32812 1.1719 0.20703 0.32422 0.47266 0.57422 0.79688 0.75 0.32031 0.16797 0.69141 0.25 1.1094 0.25 1.0195 0 1.8203-0.39062 2.4062-1.1719 0.58203-0.78125 0.875-1.8672 0.875-3.2656v-7.5625h4.8906v15.312h-4.8906v-2.2188c-0.74219 0.89844-1.5234 1.5586-2.3438 1.9844-0.82422 0.41406-1.7344 0.625-2.7344 0.625-1.7617 0-3.1055-0.53906-4.0312-1.625-0.92969-1.082-1.3906-2.6602-1.3906-4.7344z"/>
  </symbol>
  <symbol id="m" overflow="visible">
   <path d="m17.75-9.3281v9.3281h-4.9219v-7.1406c0-1.3203-0.03125-2.2344-0.09375-2.7344s-0.16797-0.86719-0.3125-1.1094c-0.1875-0.3125-0.44922-0.55469-0.78125-0.73438-0.32422-0.17578-0.69531-0.26562-1.1094-0.26562-1.0234 0-1.8242 0.39844-2.4062 1.1875-0.58594 0.78125-0.875 1.8711-0.875 3.2656v7.5312h-4.8906v-15.312h4.8906v2.2344c0.73828-0.88281 1.5195-1.5391 2.3438-1.9688 0.83203-0.42578 1.75-0.64062 2.75-0.64062 1.7695 0 3.1133 0.54688 4.0312 1.6406 0.91406 1.0859 1.375 2.6562 1.375 4.7188z"/>
  </symbol>
  <symbol id="l" overflow="visible">
   <path d="m2.5781-20.406h8.7344c2.5938 0 4.582 0.57812 5.9688 1.7344 1.3945 1.1484 2.0938 2.7891 2.0938 4.9219 0 2.1367-0.69922 3.7812-2.0938 4.9375-1.3867 1.1562-3.375 1.7344-5.9688 1.7344h-3.4844v7.0781h-5.25zm5.25 3.8125v5.7031h2.9219c1.0195 0 1.8047-0.25 2.3594-0.75 0.5625-0.5 0.84375-1.2031 0.84375-2.1094 0-0.91406-0.28125-1.6172-0.84375-2.1094-0.55469-0.48828-1.3398-0.73438-2.3594-0.73438z"/>
  </symbol>
  <symbol id="k" overflow="visible">
   <path d="m2.3594-15.312h4.8906v15.031c0 2.0508-0.49609 3.6172-1.4844 4.7031-0.98047 1.082-2.4062 1.625-4.2812 1.625h-2.4219v-3.2188h0.85938c0.92578 0 1.5625-0.21094 1.9062-0.625 0.35156-0.41797 0.53125-1.2461 0.53125-2.4844zm0-5.9688h4.8906v4h-4.8906z"/>
  </symbol>
  <symbol id="j" overflow="visible">
   <path d="m14.719-14.828v3.9844c-0.65625-0.45703-1.3242-0.79688-2-1.0156-0.66797-0.21875-1.3594-0.32812-2.0781-0.32812-1.3672 0-2.4336 0.40234-3.2031 1.2031-0.76172 0.79297-1.1406 1.9062-1.1406 3.3438 0 1.4297 0.37891 2.543 1.1406 3.3438 0.76953 0.79297 1.8359 1.1875 3.2031 1.1875 0.75781 0 1.4844-0.10938 2.1719-0.32812 0.6875-0.22656 1.3203-0.56641 1.9062-1.0156v4c-0.76172 0.28125-1.5391 0.48828-2.3281 0.625-0.78125 0.14453-1.5742 0.21875-2.375 0.21875-2.7617 0-4.9219-0.70703-6.4844-2.125-1.5547-1.4141-2.3281-3.3828-2.3281-5.9062 0-2.5312 0.77344-4.5039 2.3281-5.9219 1.5625-1.4141 3.7227-2.125 6.4844-2.125 0.80078 0 1.5938 0.074219 2.375 0.21875 0.78125 0.13672 1.5547 0.35156 2.3281 0.64062z"/>
  </symbol>
 </defs>
 <g>
  <path d="m296.63 304.02c0 1.6797-1.3984 3.0781-3.0781 3.0781-1.6797 0-3.0781-1.3984-3.0781-3.0781v-35.504c0-1.6797 1.3984-3.0781 3.0781-3.0781h112.89c1.6797 0 3.0781 1.3984 3.0781 3.0781v35.504c0 1.6797-1.3984 3.0781-3.0781 3.0781-1.6797 0-3.0781-1.3984-3.0781-3.0781v-32.426h-106.73v32.426zm-145.82 146.11v5.9375c0 1.6797-1.3984 3.0781-3.0781 3.0781h-22.734c-1.6797 0-3.0781-1.3984-3.0781-3.0781v-5.9375h-30.574c-1.6797 0-3.0781-1.3984-3.0781-3.0781l-0.054687-45.473c-0.11328-4.7031 0.78516-8.1211 2.6875-10.922 1.793-2.6328 4.3672-4.5938 7.7266-6.4961l8.1211-4.2578c0.89453-0.44922 1.9023-0.50391 2.8555 0l7.9531 4.1445c3.4141 1.9609 6.0469 3.9219 7.8945 6.6094 1.9023 2.8008 2.8008 6.2148 2.6875 10.922l-0.054688 1.3984v50.008h16.574v-57.789l-0.11328-2.9102c-0.28125-8.625 1.3984-14.84 4.7617-19.824 3.3594-4.9297 8.2891-8.5664 14.672-12.266l15.793-8.1758c0.83984-0.44922 1.9023-0.50391 2.8008 0l15.68 8.1758c5.6016 3.1914 10.023 6.3281 13.273 10.305v-35.336h-120.85c-1.6797 0-3.0781-1.3984-3.0781-3.0781 0-1.6797 1.3984-3.0781 3.0781-3.0781h120.85v-9.5195h-109.48c-1.6797 0-3.0781-1.3438-3.0781-3.0781 0-1.6797 1.3984-3.0781 3.0781-3.0781h109.48v-61.152h-3.9766c-1.6797 0-3.0781-1.3438-3.0781-3.0781 0-1.6797 1.3984-3.0781 3.0781-3.0781h284.87c1.7344 0 3.0781 1.3984 3.0781 3.0781 0 1.7344-1.3438 3.0781-3.0781 3.0781h-3.9219v61.152h109.48c1.6797 0 3.0781 1.3984 3.0781 3.0781 0 1.7344-1.3984 3.0781-3.0781 3.0781h-109.48v9.5195h120.85c1.6797 0 3.0781 1.3984 3.0781 3.0781 0 1.6797-1.3984 3.0781-3.0781 3.0781h-120.85v35.336c3.2461-3.9766 7.6719-7.1133 13.215-10.305l15.734-8.1758c0.89453-0.50391 1.9609-0.44922 2.8008 0l15.793 8.1758c6.3828 3.6953 11.312 7.3359 14.617 12.266 3.4141 4.9844 5.0977 11.199 4.8164 19.824l-0.11328 2.9102v57.789h16.574v-6.0469c0-14.953 0.44922-30.465-0.054688-45.359-0.11328-4.7031 0.78516-8.1211 2.6875-10.922 1.8477-2.6875 4.4805-4.6484 7.8945-6.6094l7.9531-4.1445c0.95313-0.50391 1.9609-0.44922 2.8555 0l8.0078 4.1445c3.3594 1.9609 5.9922 3.9219 7.8398 6.6094 1.9023 2.8008 2.8008 6.2148 2.6875 10.863l-0.054688 1.457v44.07c0 1.6797-1.3984 3.0781-3.0781 3.0781h-30.574v5.9375c0 1.6797-1.3984 3.0781-3.0781 3.0781h-22.734c-1.6797 0-3.0781-1.3984-3.0781-3.0781v-5.9375h-60.703v5.9375c0 1.6797-1.3984 3.0781-3.0781 3.0781h-22.734c-1.6797 0-3.0781-1.3984-3.0781-3.0781v-5.9375h-27.496v5.9375c0 1.6797-1.3984 3.0781-3.0781 3.0781h-22.734c-1.6797 0-3.0781-1.3984-3.0781-3.0781v-5.9375h-106.4v5.9375c0 1.6797-1.3984 3.0781-3.0781 3.0781h-22.738c-1.6797 0-3.0781-1.3984-3.0781-3.0781v-5.9375h-27.496v5.9375c0 1.6797-1.3984 3.0781-3.0781 3.0781h-22.734c-1.6797 0-3.0781-1.3984-3.0781-3.0781v-5.9375h-60.703zm0-6.1602h60.703c-0.054688-15.848-0.39062-31.977 0-47.77v-9.2383c-0.39062-4.5938-1.625-8.1211-3.5859-11.09-2.7422-3.9766-7-7.0547-12.656-10.359l-14.113-7.2812-14.113 7.2812c-5.6562 3.3047-9.9688 6.3828-12.656 10.359-2.6875 3.9766-3.9766 8.9609-3.6953 16.238 0.55859 17.078 0.16797 34.609 0.11328 51.855zm-28.895 0c0-14.055-0.39062-28.617 0.054688-42.617 0.11328-3.3047-0.44922-5.543-1.625-7.2227-1.1758-1.793-3.1914-3.1914-5.8242-4.7617l-6.3828-3.3047-6.4414 3.3594c-2.5742 1.5117-4.5352 2.9102-5.7109 4.7031-1.1758 1.6797-1.7344 3.9219-1.625 7.2227 0.39062 14 0.054687 28.504 0.054687 42.617h27.496zm95.762-56.953c0.11328 1.6797 0.16797 3.4141 0.11328 5.2656l-0.11328 2.8008v57.898h16.574v-6.0469c0-14.953 0.44922-30.465-0.054688-45.359-0.11328-4.7031 0.78516-8.1211 2.6875-10.922 1.8477-2.6875 4.4805-4.6484 7.8945-6.6094l7.9531-4.1445c0.95312-0.50391 1.9609-0.44922 2.8555 0l8.0078 4.1445c3.3594 1.9609 5.9922 3.9219 7.8398 6.6094 1.9023 2.8008 2.8008 6.2148 2.6875 10.863l-0.054688 1.457v50.004h16.574v-6.3281c0.16797-32.535 0.89453-65.742-0.16797-98-0.44922-14.113 2.1836-24.078 7.6719-32.145 5.4336-8.0078 13.551-13.887 24.137-19.992l26.32-13.664c0.89453-0.50391 1.9609-0.44922 2.8008 0l26.434 13.664c10.527 6.1055 18.594 12.039 24.023 19.992 5.4883 8.1211 8.1211 18.09 7.6719 32.145l-0.16797 5.0391v99.285h16.574v-6.0469c0-14.953 0.44922-30.465-0.054688-45.359-0.16797-4.7031 0.78516-8.1211 2.6875-10.922 1.8477-2.6875 4.4805-4.6484 7.8945-6.6094l7.9531-4.1445c0.95312-0.50391 1.9609-0.44922 2.8008 0l8.0625 4.1445c3.3594 1.9609 5.9922 3.9219 7.8398 6.6094 1.9023 2.8008 2.8008 6.2148 2.6328 10.863v51.461h16.574v-57.898l-0.11328-2.8008c-0.054688-1.8477 0-3.5859 0.11328-5.2656v-134.84h-264.66v134.84zm82.434-225.85c0.16797 0.054687 0.39062 0.16797 0.55859 0.28125h5.0391c1.7344 0 3.0781 1.3984 3.0781 3.0781 0 1.6797-1.3438 3.0781-3.0781 3.0781h-3.8633v64.23h96.266v-64.23h-3.8086c-1.7344 0-3.0781-1.3984-3.0781-3.0781 0-1.6797 1.3438-3.0781 3.0781-3.0781h5.0391c0.16797-0.11328 0.33594-0.22266 0.55859-0.28125l32.535-12.543v-11.199c-1.6797-0.50391-3.1367-1.457-4.3672-2.6328-1.8477-1.9023-3.0781-4.5352-3.0781-7.4492 0-2.9102 1.2305-5.543 3.0781-7.4492 1.2305-1.1758 2.6875-2.1289 4.3672-2.6328v-13.328c0-1.6797 1.3984-3.0781 3.0781-3.0781 1.7344 0 3.0781 1.3984 3.0781 3.0781v13.328c1.6797 0.50391 3.1914 1.457 4.3672 2.6328 1.9023 1.9023 3.0781 4.5352 3.0781 7.4492 0 2.9102-1.1758 5.543-3.0781 7.4492-1.1758 1.1758-2.6875 2.1289-4.3672 2.6328v11.199l32.594 12.543c0.16797 0.054687 0.39062 0.16797 0.55859 0.28125h5.0391c1.6797 0 3.0781 1.3984 3.0781 3.0781 0 1.6797-1.3984 3.0781-3.0781 3.0781h-3.8633v64.23h8.5117c1.6797 0 3.0781 1.3438 3.0781 3.0781 0 1.6797-1.3984 3.0781-3.0781 3.0781h-262.87c-1.7344 0-3.0781-1.3984-3.0781-3.0781 0-1.7344 1.3438-3.0781 3.0781-3.0781h8.5117v-64.23h-3.8633c-1.7344 0-3.0781-1.3984-3.0781-3.0781 0-1.6797 1.3438-3.0781 3.0781-3.0781h5.0391c0.16797-0.11328 0.33594-0.22266 0.55859-0.28125l32.535-12.543v-11.199c-1.625-0.50391-3.1367-1.457-4.3125-2.6328-1.9023-1.9023-3.0781-4.5352-3.0781-7.4492 0-2.9102 1.1758-5.543 3.0781-7.4492 1.1758-1.1758 2.6875-2.1289 4.3125-2.6328v-13.328c0-1.6797 1.3984-3.0781 3.0781-3.0781 1.7344 0 3.1367 1.3984 3.1367 3.0781v13.328c1.625 0.50391 3.1367 1.457 4.3125 2.6328 1.9023 1.9023 3.0781 4.5352 3.0781 7.4492 0 2.9102-1.1758 5.543-3.0781 7.4492-1.1758 1.1758-2.6875 2.1289-4.3125 2.6328v11.199l32.535 12.543zm-19.434 0.28125-16.238-6.2734-16.184 6.2734h32.426zm-16.238-38.473h-0.10938c-1.1211 0.054688-2.1836 0.50391-2.9688 1.2891s-1.2305 1.8477-1.2305 3.0781c0 1.1758 0.44922 2.2969 1.2305 3.0781 0.78516 0.78516 1.8477 1.2305 2.9688 1.2891h0.22266c1.1758-0.054688 2.2383-0.50391 3.0234-1.2891 0.78516-0.78516 1.2305-1.9023 1.2305-3.0781 0-1.2305-0.44922-2.2969-1.2305-3.0781-0.78516-0.78516-1.8477-1.2305-3.0234-1.2891zm15.734 108.86v-64.23h-31.414v64.23h4.8711v-40.879c0-2.9688 1.1758-5.6562 3.1367-7.6719 1.9609-1.9609 4.7031-3.1914 7.6719-3.1914 3.0234 0 5.7109 1.2305 7.6719 3.1914 2.0156 2.0156 3.1914 4.7031 3.1914 7.6719v40.879zm15.512-64.23h-9.3516v64.23h9.3516zm-31.246 18.648c-1.2891 0-2.4648 0.55859-3.3047 1.3984-0.83984 0.83984-1.3438 2.0156-1.3438 3.3047v40.879h9.3516v-40.879c0-1.2891-0.50391-2.4648-1.3438-3.3047s-2.0156-1.3984-3.3594-1.3984zm-21.84-18.648h-9.3516v64.23h9.3516zm192.92-12.434-16.184 6.2734h32.426l-16.238-6.2734zm3.1367-30.91c-0.78516-0.78516-1.8477-1.2305-3.0234-1.2891h-0.21875c-1.1211 0.054688-2.1836 0.50391-2.9688 1.2891-0.78516 0.78516-1.2891 1.8477-1.2891 3.0781 0 1.1758 0.50391 2.2969 1.2891 3.0781 0.78516 0.78516 1.8477 1.2305 2.9688 1.2891h0.21875c1.1758-0.054688 2.2383-0.50391 3.0234-1.2891s1.2305-1.9023 1.2305-3.0781c0-1.2305-0.44922-2.2969-1.2305-3.0781zm-24.977 43.344h-9.3516v64.23h9.3516zm6.1602 0v64.23h4.8164v-40.879c0-2.8555 1.1758-5.4883 3.0234-7.4492l0.16797-0.22266c1.9609-1.9609 4.7031-3.1914 7.6719-3.1914 3.0234 0 5.7109 1.2305 7.6719 3.1914 2.0156 2.0156 3.1914 4.7031 3.1914 7.6719v40.879h4.8711v-64.23zm15.68 18.648c-1.2891 0-2.4648 0.55859-3.3047 1.3984l-0.11328 0.11328c-0.78516 0.83984-1.2305 1.9609-1.2305 3.1914v40.879h9.3516v-40.879c0-1.2891-0.50391-2.4648-1.3438-3.3047s-2.0703-1.3984-3.3594-1.3984zm31.246-18.648h-9.3516v64.23h9.3516zm-137.48 191.57h-0.11328c-1.6797-0.054688-3.0234-1.457-2.9688-3.1367l0.054687-0.83984-0.054687-0.83984c0-1.0078 0-1.9609 0.054687-2.8555-0.22266-2.8008-0.89453-4.9297-2.0703-6.6094-1.5664-2.2969-4.0898-4.0898-7.3906-6.0469l-9.5195-4.9297c-1.5117-0.78516-2.1289-2.6328-1.3438-4.1445s2.6328-2.1289 4.1445-1.3438l9.7422 5.0391c4.0898 2.4062 7.2227 4.7031 9.4062 7.9531l0.11328 0.054687v-0.054687c2.1836-3.1914 5.3203-5.543 9.4062-7.8945l9.8008-5.0977c0.83984-0.44922 1.9023-0.44922 2.8008 0l9.7422 5.0391c4.0898 2.4062 7.2812 4.7031 9.4648 7.9531l0.11328 0.11328 0.054687-0.11328 0.16797-0.16797c2.1836-3.1367 5.2656-5.4336 9.2969-7.7852l9.7422-5.0391c1.5117-0.78516 3.3594-0.16797 4.1445 1.3438 0.78516 1.5117 0.16797 3.3594-1.3438 4.1445l-9.5195 4.9297c-3.3047 1.9023-5.7695 3.6953-7.2812 5.8789l-0.11328 0.16797c-1.5117 2.1836-2.2383 5.0391-2.0703 9.2383l0.054687 1.9023c0.054688 1.6797-1.2891 3.0781-2.9688 3.1367h-0.39062c-1.6797-0.054688-3.0234-1.457-2.9688-3.1367l0.054688-1.9023c0.16797-4.1992-0.55859-7.0547-2.0703-9.2383-1.5664-2.2969-4.0312-4.0898-7.3906-6.0469l-8.1211-4.1992-8.1211 4.1992c-3.3594 1.9609-5.8789 3.7539-7.3906 6.0469-1.1758 1.6797-1.8477 3.8086-2.0703 6.6094 0.054688 0.89453 0.054688 1.8477 0.054688 2.8555l-0.054688 0.83984 0.054688 0.83984c0.054687 1.6797-1.2891 3.0781-2.9688 3.1367h-0.16797zm-3.1367 9.4062c0-1.6797 1.3984-3.0781 3.0781-3.0781 1.7344 0 3.1367 1.3984 3.1367 3.0781v75.375h35.336v-75.375c0-1.6797 1.3438-3.0781 3.0781-3.0781 1.6797 0 3.0781 1.3984 3.0781 3.0781v75.375h29.289c-0.11328-31.754-0.78516-64.062 0.22266-95.48 0.44922-12.656-1.8477-21.504-6.6094-28.504-4.7617-7.0547-12.207-12.488-22.008-18.145l-24.754-12.824-24.754 12.824c-9.8008 5.7109-17.246 11.09-22.008 18.145-4.7617 6.9453-7.0547 15.793-6.6094 28.504 1.0078 31.414 0.33594 63.727 0.22266 95.48h29.289v-75.375zm-85.734 34.383v40.992h27.496c0-14.113-0.39062-28.559 0.054688-42.617 0.11328-3.3047-0.44922-5.543-1.625-7.2227-1.1758-1.793-3.1367-3.1914-5.8242-4.7617l-6.3281-3.3047-6.3828 3.3047c-2.6328 1.5664-4.6484 2.9688-5.8242 4.7617-1.1758 1.6797-1.7344 3.9219-1.625 7.2227l0.054687 1.625zm337.68 0v40.992h27.496c0-14.113-0.39062-28.559 0.054687-42.617 0.11328-3.3047-0.44922-5.543-1.625-7.2227-1.1758-1.793-3.1914-3.1914-5.8242-4.7617l-6.3828-3.3047-6.3281 3.3047c-2.6328 1.5664-4.6484 2.9688-5.8242 4.7617-1.1758 1.6797-1.7344 3.9219-1.625 7.2227l0.054688 1.625zm-145.99 0v40.992h27.496c0-14.113-0.39062-28.559 0.054688-42.617 0.11328-3.3047-0.44922-5.543-1.625-7.2227-1.1758-1.793-3.1914-3.1914-5.8242-4.7617l-6.3828-3.3047-6.3828 3.3047c-2.6328 1.5664-4.5938 2.9688-5.8242 4.7617-1.1211 1.6797-1.6797 3.9219-1.5664 7.2227zm-197.85-70.895c0-12.375 0.33594-25.258-0.054687-37.574-0.11328-4.7031 0.78516-8.0625 2.6875-10.863 1.8477-2.7422 4.4805-4.7031 7.8945-6.6641l7.9531-4.1445c0.95312-0.44922 1.9609-0.44922 2.8555 0l8.0078 4.1992c3.3594 1.9609 5.9922 3.9219 7.8398 6.6094 1.9023 2.8008 2.8008 6.1602 2.6875 10.863l-0.054688 1.457v36.121c0 1.6797-1.3984 3.0781-3.0781 3.0781h-33.656c-1.6797 0-3.0781-1.3984-3.0781-3.0781zm6.1602-36.121v33.039h27.496c0-11.48-0.28125-23.238 0.054688-34.664 0.11328-3.3047-0.44922-5.543-1.625-7.2812-1.1758-1.7344-3.1914-3.1914-5.8242-4.7031l-6.3828-3.3047-6.3281 3.3047c-2.6328 1.5117-4.6484 2.9688-5.8242 4.7031s-1.7344 3.9766-1.625 7.2812l0.054687 1.625zm185.53 36.121c0-12.375 0.33594-25.258-0.054687-37.574-0.16797-4.7031 0.78516-8.0625 2.6875-10.863 1.8477-2.7422 4.4805-4.7031 7.8945-6.6641l7.9531-4.1445c0.89453-0.44922 1.9609-0.44922 2.8008 0l8.0625 4.1992c3.3594 1.9609 5.9922 3.9219 7.8398 6.6094 1.9023 2.8008 2.8008 6.1602 2.6328 10.863v37.578c0 1.6797-1.3984 3.0781-3.0781 3.0781h-33.656c-1.7344 0-3.0781-1.3984-3.0781-3.0781zm6.1602-36.121v33.039h27.496c0-11.48-0.28125-23.238 0.054688-34.664 0.11328-3.3047-0.44922-5.543-1.625-7.2812-1.1758-1.7344-3.1914-3.1914-5.8242-4.7031l-6.3828-3.3047-6.3828 3.3047c-2.6328 1.5117-4.5938 2.9688-5.8242 4.7031-1.1211 1.7344-1.6797 3.9766-1.5664 7.2812zm117.1 148.01c-0.054688-17.246-0.44922-34.777 0.11328-51.855 0.22266-7.2812-1.0078-12.266-3.6953-16.238-2.7422-3.9766-7-7.0547-12.656-10.359l-14.113-7.2812-14.113 7.2812c-5.6016 3.2461-9.8555 6.3281-12.543 10.246l-0.11328 0.11328c-2.0156 2.9688-3.1914 6.4961-3.5859 11.09v9.2383c0.33594 15.793 0 31.922 0 47.77h60.703z"/>
  <use x="70" y="644" xlink:href="#t"/>
  <use x="90.550781" y="644" xlink:href="#c"/>
  <use x="104.359375" y="644" xlink:href="#a"/>
  <use x="123.347656" y="644" xlink:href="#f"/>
  <use x="142.242188" y="644" xlink:href="#b"/>
  <use x="155.628906" y="644" xlink:href="#a"/>
  <use x="174.617188" y="644" xlink:href="#e"/>
  <use x="204.410156" y="644" xlink:href="#i"/>
  <use x="224.453125" y="644" xlink:href="#h"/>
  <use x="252.453125" y="644" xlink:href="#g"/>
  <use x="275.882812" y="644" xlink:href="#f"/>
  <use x="294.78125" y="644" xlink:href="#e"/>
  <use x="314.820312" y="644" xlink:href="#s"/>
  <use x="70" y="672" xlink:href="#r"/>
  <use x="82.183594" y="672" xlink:href="#c"/>
  <use x="95.992188" y="672" xlink:href="#d"/>
  <use x="115.226562" y="672" xlink:href="#q"/>
  <use x="154.152344" y="672" xlink:href="#b"/>
  <use x="167.535156" y="672" xlink:href="#p"/>
  <use x="187.46875" y="672" xlink:href="#a"/>
  <use x="216.207031" y="672" xlink:href="#o"/>
  <use x="239.640625" y="672" xlink:href="#d"/>
  <use x="258.878906" y="672" xlink:href="#n"/>
  <use x="278.8125" y="672" xlink:href="#m"/>
  <use x="308.492188" y="672" xlink:href="#l"/>
  <use x="329.015625" y="672" xlink:href="#c"/>
  <use x="342.820312" y="672" xlink:href="#d"/>
  <use x="362.058594" y="672" xlink:href="#k"/>
  <use x="371.65625" y="672" xlink:href="#a"/>
  <use x="390.648438" y="672" xlink:href="#j"/>
  <use x="407.242188" y="672" xlink:href="#b"/>
 </g>
</svg>
