<svg width="956" height="956" viewBox="0 0 956 956" fill="none" xmlns="http://www.w3.org/2000/svg">
    <path d="M386.253 223.02C393.565 209.565 406.116 198.049 421.757 189.963C436.37 182.44 453.835 177.763 472.566 176.849V171.266C472.566 167.846 475.418 165 478.842 165C482.379 165 485.119 167.846 485.119 171.266V176.849C503.952 177.763 521.427 182.431 535.928 189.963C551.8 198.17 564.241 209.684 571.552 223.141C578.29 224.509 584.223 227.697 588.905 232.374C593.589 237.049 596.901 243.094 598.151 249.933H617.106C630.923 249.933 643.484 255.515 652.61 264.637C661.633 273.758 667.335 286.3 667.335 300.089V322.205H673.387C676.812 322.205 679.662 325.051 679.662 328.471C679.662 331.891 676.812 334.737 673.387 334.737H671.564L663.455 369.393H665.511C668.936 369.735 671.564 372.813 671.222 376.234L665.741 433.237L671.11 650.767H686.639C691.091 650.767 695.201 652.708 698.172 655.554L698.624 656.126C701.253 658.974 702.965 662.854 702.965 667.189V677.336H710.157C714.609 677.336 718.718 679.158 721.689 682.123C724.659 685.09 726.483 689.193 726.483 693.639V703.898H733.674C738.127 703.898 742.235 705.718 745.206 708.685C748.176 711.652 750 715.754 750 720.201V736.734C750 740.152 747.15 743 743.725 743H213.275C209.852 743 207 740.152 207 736.734V720.201C207 715.754 208.824 711.652 211.795 708.685C214.765 705.718 218.875 703.898 223.326 703.898H230.517V693.639C230.517 689.193 232.341 685.09 235.312 682.123C238.283 679.158 242.392 677.336 246.843 677.336H254.036V667.189C254.036 662.633 255.859 658.521 258.83 655.561L259.284 655.219C262.255 652.485 266.133 650.775 270.362 650.775H285.891L291.259 433.244L285.78 376.241C285.437 372.821 288.066 369.744 291.489 369.402H293.545L285.437 334.745H283.613C280.19 334.745 277.338 331.899 277.338 328.479C277.338 325.06 280.19 322.212 283.613 322.212H289.667V300.097C289.667 286.3 295.376 273.757 304.392 264.644C313.527 255.523 326.086 249.94 339.896 249.94H358.85C360.107 243.102 363.413 237.058 368.095 232.381L368.549 232.039C373.344 227.364 379.396 224.174 386.245 223.029L386.253 223.02ZM575.66 716.447C572.235 716.447 569.385 713.601 569.385 710.181C569.385 706.762 572.235 703.915 575.66 703.915H589.7C593.125 703.915 595.976 706.762 595.976 710.181C595.976 713.601 593.125 716.447 589.7 716.447H575.66ZM424.607 249.934H585.24C584.212 246.626 582.388 243.668 579.992 241.266C576.224 237.394 570.857 235 565.036 235H536.381C532.956 235 530.104 232.264 530.104 228.734C530.104 225.313 532.956 222.467 536.381 222.467H556.362C550.086 214.03 541.063 206.736 530.217 201.146C515.833 193.733 498.139 189.288 479.063 189.288H478.721C459.545 189.288 441.96 193.733 427.569 201.146C416.721 206.728 407.706 214.028 401.423 222.467H509.319C512.745 222.467 515.595 225.313 515.595 228.734C515.595 232.264 512.745 235 509.319 235H391.955C386.245 235 381.109 237.283 377.341 240.924L376.999 241.266C374.601 243.66 372.778 246.626 371.751 249.934H424.616H424.607ZM423.81 262.476C418.331 262.707 413.417 265.322 409.77 269.427C405.772 273.983 403.264 280.257 403.264 287.328V322.216H553.744V287.328C553.744 280.257 551.235 273.99 547.238 269.427C543.582 265.322 538.676 262.698 533.196 262.476H423.81ZM390.705 322.216V287.328C390.705 277.753 394.017 269.085 399.265 262.476H339.903C329.629 262.476 320.152 266.69 313.303 273.537C306.455 280.377 302.225 289.73 302.225 300.099V322.214L390.705 322.216ZM631.504 334.757V344.561C631.504 347.982 628.654 350.829 625.228 350.829C621.805 350.829 618.953 347.982 618.953 344.561V334.757H598.861V344.561C598.861 347.982 596.121 350.829 592.584 350.829C589.16 350.829 586.309 347.982 586.309 344.561V334.757H566.328V356.189C566.328 359.607 563.476 362.455 560.051 362.455C556.628 362.455 553.776 359.607 553.776 356.189V334.757H533.684V344.561C533.684 347.982 530.944 350.829 527.408 350.829C523.983 350.829 521.132 347.982 521.132 344.561V334.757H501.151V344.561C501.151 347.982 498.299 350.829 494.876 350.829C491.339 350.829 488.599 347.982 488.599 344.561V334.757H468.507V344.561C468.507 347.982 465.767 350.829 462.231 350.829C458.806 350.829 455.954 347.982 455.954 344.561V334.757H435.974V344.561C435.974 347.982 433.122 350.829 429.699 350.829C426.162 350.829 423.422 347.982 423.422 344.561V334.757H403.33V356.189C403.33 359.607 400.478 362.455 397.054 362.455C393.629 362.455 390.779 359.607 390.779 356.189V334.757H370.797V344.561C370.797 347.982 367.945 350.829 364.521 350.829C360.985 350.829 358.246 347.982 358.246 344.561V334.757H338.152V344.561C338.152 347.982 335.301 350.829 331.877 350.829C328.452 350.829 325.602 347.982 325.602 344.561V334.757H298.428L306.536 369.413H650.64L658.747 334.757H631.504ZM562.203 439.532C558.778 439.532 555.927 436.684 555.927 433.264C555.927 429.734 558.778 426.998 562.203 426.998H566.542L570.883 381.964H543.71L548.505 432.58V433.71L543.598 633.222V634.701L543.256 650.773H571.345L566.097 439.514H562.218L562.203 439.532ZM578.529 433.264L583.896 650.795H617.919L623.286 433.508L618.381 381.978H583.443L578.538 433.279L578.529 433.264ZM530.688 650.795L531.031 634.15V633.919C531.031 629.705 529.318 625.713 526.468 622.857C523.616 620.121 519.731 618.301 515.39 618.301H441.292C437.072 618.301 433.073 620.121 430.215 622.857C428.049 625.14 426.448 627.986 425.874 631.295L426.328 650.787H530.681L530.688 650.795ZM531.604 611.009L536.057 433.501L531.15 381.97H425.882L420.977 433.501L425.429 610.778C429.881 607.59 435.48 605.761 441.301 605.761H515.399C521.451 605.761 527.041 607.7 531.613 611.001L531.604 611.009ZM653.772 427.002L658.113 381.967H630.94L635.735 432.585L635.845 432.696V433.715L630.478 650.776H658.565L653.318 439.517H649.552C646.015 439.517 643.155 436.669 643.155 433.25C643.155 429.719 646.007 426.983 649.552 426.983H653.772V427.002ZM298.474 650.802H326.564L321.195 433.741V432.724L321.307 432.612L326.102 381.995H298.928L303.268 427.03H307.609C311.034 427.03 313.884 429.766 313.884 433.296C313.884 436.716 311.034 439.563 307.609 439.563H303.61L298.474 650.822V650.802ZM339.123 650.802H373.147L378.514 433.273L373.609 381.972H338.671L333.764 433.502L339.133 650.788L339.123 650.802ZM408.538 433.741V432.612L413.333 381.995H386.159L390.501 427.03H394.84C398.265 427.03 401.115 429.766 401.115 433.296C401.115 436.716 398.265 439.563 394.84 439.563H390.962L385.713 650.822H413.914L413.46 636.23C413.229 635.546 413.117 634.75 413.117 633.947C413.117 632.69 413.229 631.553 413.348 630.296L408.554 433.75L408.538 433.741ZM557.758 262.501C563.005 269.109 566.319 277.777 566.319 287.352V322.24H654.798V300.125C654.798 289.746 650.578 280.402 643.72 273.563C636.871 266.724 627.505 262.501 617.12 262.501H557.758ZM236.712 716.473H223.357C222.329 716.473 221.413 716.927 220.728 717.611C220.043 718.293 219.589 719.208 219.589 720.234V730.493H737.48V720.234C737.48 719.208 737.026 718.295 736.341 717.611C735.656 716.927 734.74 716.473 733.712 716.473H645.686C642.261 716.473 639.411 713.626 639.411 710.207C639.411 706.787 642.261 703.939 645.686 703.939H713.961V693.682C713.961 692.656 713.507 691.741 712.822 691.057C712.137 690.373 711.221 689.919 710.193 689.919H345.068C341.645 689.919 338.793 687.183 338.793 683.653C338.793 680.233 341.645 677.387 345.068 677.387H690.438V667.239C690.438 666.213 690.095 665.418 689.522 664.733L689.291 664.503C688.606 663.819 687.69 663.477 686.662 663.477H270.406C269.491 663.477 268.582 663.707 268.009 664.272L267.778 664.503C267.093 665.187 266.639 666.213 266.639 667.239V677.387H288.564C291.988 677.387 294.728 680.233 294.728 683.653C294.728 687.185 291.988 689.919 288.564 689.919H246.895C245.868 689.919 244.952 690.373 244.267 691.057C243.582 691.741 243.128 692.656 243.128 693.682V703.939H553.328C556.753 703.939 559.603 706.787 559.603 710.207C559.603 713.626 556.753 716.473 553.328 716.473H236.712Z" fill="black"/>
    </svg>
