<svg width="934" height="934" viewBox="0 0 934 934" fill="none" xmlns="http://www.w3.org/2000/svg">
    <path d="M393.71 518.36C393.71 520.6 391.846 522.464 389.606 522.464C387.367 522.464 385.502 520.6 385.502 518.36V471.021C385.502 468.782 387.367 466.917 389.606 466.917H540.126C542.366 466.917 544.23 468.782 544.23 471.021V518.36C544.23 520.6 542.366 522.464 540.126 522.464C537.887 522.464 536.022 520.6 536.022 518.36V475.125H393.715V518.36H393.71ZM199.284 713.173V721.09C199.284 723.33 197.419 725.194 195.18 725.194H164.868C162.628 725.194 160.763 723.33 160.763 721.09V713.173H119.998C117.758 713.173 115.894 711.309 115.894 709.069L115.821 648.438C115.67 642.168 116.868 637.61 119.404 633.876C121.795 630.365 125.227 627.751 129.706 625.214L140.535 619.537C141.727 618.938 143.071 618.865 144.342 619.537L154.946 625.063C159.498 627.678 163.009 630.292 165.472 633.876C168.008 637.61 169.206 642.162 169.055 648.438L168.983 650.303V716.98H191.081V639.928L190.93 636.048C190.555 624.548 192.795 616.261 197.279 609.616C201.758 603.043 208.331 598.194 216.842 593.261L237.899 582.36C239.019 581.761 240.435 581.688 241.633 582.36L262.54 593.261C270.009 597.517 275.904 601.699 280.237 607.001V559.887H119.104C116.865 559.887 115 558.022 115 555.783C115 553.543 116.865 551.679 119.104 551.679H280.237V538.986H134.264C132.025 538.986 130.16 537.194 130.16 534.882C130.16 532.642 132.025 530.778 134.264 530.778H280.237V449.242H274.935C272.696 449.242 270.831 447.45 270.831 445.137C270.831 442.898 272.696 441.033 274.935 441.033H654.762C657.075 441.033 658.866 442.898 658.866 445.137C658.866 447.45 657.074 449.242 654.762 449.242H649.533V530.778H795.506C797.746 530.778 799.61 532.642 799.61 534.882C799.61 537.194 797.746 538.986 795.506 538.986H649.533V551.679H810.666C812.906 551.679 814.77 553.543 814.77 555.783C814.77 558.022 812.906 559.887 810.666 559.887H649.533V607.001C653.861 601.699 659.762 597.517 667.153 593.261L688.132 582.36C689.324 581.688 690.746 581.761 691.866 582.36L712.923 593.261C721.434 598.189 728.006 603.043 732.413 609.616C736.965 616.262 739.209 624.548 738.834 636.048L738.683 639.928V716.98H760.782V708.918C760.782 688.98 761.381 668.298 760.709 648.439C760.558 642.168 761.756 637.611 764.292 633.877C766.756 630.293 770.266 627.679 774.818 625.064L785.423 619.538C786.693 618.866 788.037 618.939 789.23 619.538L799.907 625.064C804.386 627.679 807.897 630.293 810.36 633.877C812.896 637.611 814.094 642.163 813.943 648.36L813.87 650.303V709.063C813.87 711.303 812.006 713.167 809.766 713.167H769.001V721.084C769.001 723.324 767.137 725.188 764.897 725.188H734.585C732.345 725.188 730.481 723.324 730.481 721.084V713.167H649.543V721.084C649.543 723.324 647.679 725.188 645.439 725.188H615.127C612.888 725.188 611.023 723.324 611.023 721.084V713.167H574.362V721.084C574.362 723.324 572.497 725.188 570.258 725.188H539.946C537.706 725.188 535.842 723.324 535.842 721.084V713.167H393.975V721.084C393.975 723.324 392.11 725.188 389.871 725.188H359.553C357.314 725.188 355.449 723.324 355.449 721.084V713.167H318.788V721.084C318.788 723.324 316.923 725.188 314.684 725.188H284.372C282.132 725.188 280.268 723.324 280.268 721.084V713.167H199.33L199.284 713.173ZM199.284 704.96H280.221C280.148 683.829 279.7 662.324 280.221 641.266V628.949C279.7 622.824 278.054 618.12 275.44 614.162C271.784 608.86 266.106 604.756 258.565 600.35L239.748 590.642L220.93 600.35C213.389 604.756 207.639 608.86 204.056 614.162C200.472 619.464 198.754 626.11 199.129 635.813C199.874 658.583 199.353 681.958 199.28 704.953L199.284 704.96ZM160.757 704.96C160.757 686.22 160.236 666.804 160.83 648.137C160.981 643.731 160.231 640.746 158.663 638.507C157.096 636.116 154.408 634.252 150.898 632.158L142.387 627.752L133.799 632.231C130.366 634.246 127.752 636.111 126.184 638.502C124.616 640.741 123.872 643.731 124.018 648.132C124.538 666.799 124.09 686.137 124.09 704.955H160.752L160.757 704.96ZM288.44 629.022C288.591 631.262 288.664 633.575 288.591 636.043L288.44 639.778V716.975H310.538V708.912C310.538 688.975 311.137 668.292 310.465 648.434C310.314 642.163 311.512 637.606 314.049 633.871C316.512 630.288 320.023 627.673 324.575 625.059L335.179 619.533C336.45 618.861 337.793 618.934 338.986 619.533L349.663 625.059C354.143 627.673 357.653 630.288 360.116 633.871C362.653 637.605 363.851 642.157 363.7 648.355L363.627 650.298V716.97H385.725V708.532C385.949 665.152 386.918 620.876 385.501 577.866C384.903 559.048 388.413 545.762 395.731 535.006C402.976 524.329 413.799 516.49 427.913 508.35L463.007 490.131C464.199 489.459 465.621 489.532 466.741 490.131L501.986 508.35C516.022 516.49 526.778 524.402 534.017 535.006C541.335 545.834 544.845 559.126 544.246 577.866L544.022 584.584V716.964H566.121V708.902C566.121 688.964 566.72 668.282 566.048 648.423C565.824 642.152 567.095 637.595 569.631 633.86C572.095 630.277 575.605 627.663 580.157 625.048L590.762 619.522C592.032 618.85 593.376 618.923 594.496 619.522L605.246 625.048C609.725 627.663 613.236 630.277 615.699 633.86C618.235 637.595 619.433 642.147 619.209 648.344V716.959H641.308V639.762L641.157 636.027C641.084 633.564 641.157 631.246 641.308 629.007V449.22H288.428V629.007L288.44 629.022ZM398.352 327.889C398.576 327.962 398.873 328.113 399.096 328.264H405.815C408.128 328.264 409.919 330.129 409.919 332.368C409.919 334.608 408.128 336.472 405.815 336.472H400.664V422.112H529.019V336.472H523.941C521.628 336.472 519.837 334.608 519.837 332.368C519.837 330.129 521.628 328.264 523.941 328.264H530.66C530.883 328.113 531.107 327.967 531.404 327.889L574.784 311.165V296.233C572.545 295.561 570.602 294.29 568.961 292.723C566.498 290.186 564.857 286.676 564.857 282.79C564.857 278.91 566.498 275.4 568.961 272.858C570.602 271.29 572.545 270.02 574.784 269.348V251.577C574.784 249.337 576.649 247.473 578.888 247.473C581.201 247.473 582.993 249.337 582.993 251.577V269.348C585.232 270.02 587.248 271.29 588.816 272.858C591.352 275.395 592.92 278.905 592.92 282.79C592.92 286.671 591.352 290.181 588.816 292.723C587.248 294.29 585.232 295.561 582.993 296.233V311.165L626.451 327.889C626.675 327.962 626.972 328.113 627.196 328.264H633.915C636.154 328.264 638.019 330.129 638.019 332.368C638.019 334.608 636.154 336.472 633.915 336.472H628.764V422.112H640.113C642.352 422.112 644.217 423.904 644.217 426.216C644.217 428.456 642.352 430.321 640.113 430.321H289.619C287.307 430.321 285.515 428.456 285.515 426.216C285.515 423.904 287.307 422.112 289.619 422.112H300.968V336.472H295.817C293.505 336.472 291.713 334.608 291.713 332.368C291.713 330.129 293.505 328.264 295.817 328.264H302.536C302.76 328.113 302.984 327.967 303.281 327.889L346.661 311.165V296.233C344.494 295.561 342.479 294.29 340.911 292.723C338.374 290.186 336.807 286.676 336.807 282.79C336.807 278.91 338.374 275.4 340.911 272.858C342.479 271.29 344.494 270.02 346.661 269.348V251.577C346.661 249.337 348.525 247.473 350.765 247.473C353.077 247.473 354.947 249.337 354.947 251.577V269.348C357.114 270.02 359.129 271.29 360.697 272.858C363.234 275.395 364.801 278.905 364.801 282.79C364.801 286.671 363.234 290.181 360.697 292.723C359.129 294.29 357.114 295.561 354.947 296.233V311.165L398.327 327.889H398.352ZM372.44 328.264L350.789 319.9L329.21 328.264H372.445H372.44ZM350.789 276.967H350.643C349.148 277.04 347.732 277.639 346.685 278.686C345.638 279.732 345.044 281.149 345.044 282.79C345.044 284.357 345.643 285.852 346.685 286.894C347.732 287.941 349.148 288.534 350.643 288.613H350.94C352.508 288.54 353.924 287.941 354.971 286.894C356.018 285.847 356.612 284.357 356.612 282.79C356.612 281.149 356.013 279.727 354.971 278.686C353.924 277.639 352.508 277.045 350.94 276.967H350.789ZM371.768 422.113V336.473H329.882V422.113H336.377V367.608C336.377 363.65 337.945 360.066 340.559 357.379C343.174 354.764 346.83 353.124 350.789 353.124C354.82 353.124 358.403 354.764 361.018 357.379C363.705 360.066 365.273 363.65 365.273 367.608V422.113H371.768ZM392.45 336.473H379.982V422.113H392.45V336.473ZM350.789 361.337C349.07 361.337 347.503 362.082 346.383 363.202C345.263 364.322 344.591 365.889 344.591 367.608V422.113H357.06V367.608C357.06 365.889 356.388 364.322 355.268 363.202C354.148 362.082 352.581 361.337 350.789 361.337ZM321.669 336.473H309.2V422.113H321.669V336.473ZM578.896 319.895L557.317 328.259H600.552L578.901 319.895H578.896ZM583.078 278.681C582.031 277.634 580.614 277.041 579.047 276.963H578.755C577.26 277.035 575.844 277.634 574.797 278.681C573.75 279.728 573.078 281.145 573.078 282.786C573.078 284.353 573.75 285.848 574.797 286.89C575.844 287.937 577.26 288.53 578.755 288.608H579.047C580.614 288.536 582.031 287.937 583.078 286.89C584.125 285.843 584.719 284.353 584.719 282.786C584.719 281.145 584.12 279.723 583.078 278.681ZM549.775 336.473H537.306V422.113H549.775V336.473ZM557.989 336.473V422.113H564.411V367.608C564.411 363.801 565.979 360.29 568.442 357.676L568.666 357.379C571.28 354.764 574.937 353.124 578.895 353.124C582.926 353.124 586.51 354.764 589.124 357.379C591.812 360.066 593.379 363.65 593.379 367.608V422.113H599.874V336.473L557.989 336.473ZM578.896 361.337C577.177 361.337 575.609 362.082 574.489 363.202L574.338 363.353C573.291 364.473 572.698 365.967 572.698 367.608V422.113H585.166V367.608C585.166 365.889 584.495 364.322 583.375 363.202C582.255 362.082 580.614 361.337 578.896 361.337ZM620.557 336.473H608.088V422.113H620.557V336.473ZM437.25 591.9H437.099C434.86 591.827 433.068 589.957 433.141 587.718L433.214 586.598L433.141 585.478C433.141 584.134 433.141 582.864 433.214 581.671C432.917 577.936 432.021 575.098 430.453 572.858C428.365 569.796 425 567.405 420.599 564.796L407.906 558.223C405.891 557.176 405.068 554.712 406.115 552.697C407.162 550.681 409.625 549.858 411.641 550.905L424.63 557.624C430.083 560.832 434.261 563.895 437.172 568.228L437.323 568.301V568.228C440.234 563.973 444.417 560.837 449.865 557.702L462.932 550.905C464.052 550.306 465.469 550.306 466.667 550.905L479.656 557.624C485.109 560.832 489.365 563.895 492.276 568.228L492.427 568.379L492.5 568.228L492.724 568.004C495.635 563.822 499.745 560.759 505.12 557.624L518.109 550.905C520.125 549.858 522.589 550.681 523.635 552.697C524.682 554.712 523.859 557.176 521.844 558.223L509.151 564.796C504.745 567.332 501.458 569.723 499.443 572.634L499.292 572.858C497.276 575.77 496.307 579.577 496.531 585.176L496.604 587.712C496.677 589.952 494.885 591.816 492.646 591.895H492.125C489.885 591.822 488.094 589.952 488.167 587.712L488.24 585.176C488.463 579.577 487.495 575.77 485.479 572.858C483.391 569.796 480.104 567.405 475.625 564.796L464.797 559.197L453.969 564.796C449.49 567.41 446.13 569.801 444.115 572.858C442.547 575.098 441.651 577.936 441.354 581.671C441.427 582.863 441.427 584.134 441.427 585.478L441.354 586.598L441.427 587.718C441.5 589.957 439.708 591.822 437.469 591.9H437.245L437.25 591.9ZM433.068 604.442C433.068 602.202 434.932 600.337 437.172 600.337C439.485 600.337 441.354 602.202 441.354 604.442V704.942H488.469V604.442C488.469 602.202 490.261 600.337 492.573 600.337C494.813 600.337 496.677 602.202 496.677 604.442V704.942H535.729C535.578 662.603 534.682 619.526 536.026 577.635C536.625 560.76 533.563 548.963 527.214 539.63C520.865 530.223 510.938 522.979 497.87 515.436L464.864 498.338L431.859 515.436C418.791 523.051 408.864 530.223 402.515 539.63C396.166 548.89 393.109 560.687 393.702 577.635C395.046 619.52 394.15 662.604 393.999 704.942H433.051V604.442H433.068ZM318.756 650.286V704.942H355.417C355.417 686.124 354.896 666.863 355.49 648.119C355.641 643.713 354.891 640.728 353.324 638.489C351.756 636.098 349.141 634.234 345.558 632.14L337.12 627.733L328.61 632.14C325.1 634.228 322.412 636.098 320.844 638.489C319.277 640.728 318.532 643.718 318.678 648.119L318.751 650.286H318.756ZM768.996 650.286V704.942H805.657C805.657 686.124 805.137 666.863 805.73 648.119C805.881 643.713 805.131 640.728 803.564 638.489C801.996 636.098 799.308 634.234 795.798 632.14L787.288 627.733L778.85 632.14C775.34 634.228 772.652 636.098 771.084 638.489C769.517 640.728 768.772 643.718 768.918 648.119L768.991 650.286H768.996ZM574.343 650.286V704.942H611.004C611.004 686.124 610.483 666.863 611.077 648.119C611.228 643.713 610.478 640.728 608.91 638.489C607.342 636.098 604.655 634.234 601.145 632.14L592.634 627.733L584.124 632.14C580.613 634.228 577.999 636.098 576.358 638.489C574.863 640.728 574.119 643.718 574.27 648.119L574.343 650.286ZM310.543 555.759C310.543 539.259 310.991 522.082 310.47 505.66C310.319 499.389 311.517 494.91 314.053 491.176C316.517 487.52 320.027 484.905 324.579 482.291L335.183 476.765C336.454 476.166 337.798 476.166 338.991 476.765L349.668 482.364C354.147 484.978 357.657 487.593 360.121 491.176C362.657 494.911 363.855 499.39 363.704 505.66L363.631 507.603V555.764C363.631 558.004 361.767 559.868 359.527 559.868H314.652C312.413 559.868 310.548 558.004 310.548 555.764L310.543 555.759ZM318.756 507.598V551.65H355.418C355.418 536.343 355.043 520.666 355.49 505.431C355.642 501.025 354.892 498.04 353.324 495.723C351.756 493.41 349.069 491.468 345.558 489.452L337.048 485.046L328.61 489.452C325.1 491.468 322.412 493.41 320.845 495.723C319.277 498.035 318.532 501.025 318.678 505.431L318.751 507.598H318.756ZM566.13 555.759C566.13 539.259 566.577 522.082 566.057 505.66C565.833 499.389 567.104 494.91 569.64 491.176C572.104 487.52 575.614 484.905 580.166 482.291L590.77 476.765C591.963 476.166 593.385 476.166 594.504 476.765L605.254 482.364C609.734 484.978 613.244 487.593 615.708 491.176C618.244 494.911 619.442 499.39 619.218 505.66V555.764C619.218 558.004 617.353 559.868 615.114 559.868H570.239C567.927 559.868 566.135 558.004 566.135 555.764L566.13 555.759ZM574.343 507.598V551.65H611.004C611.004 536.343 610.629 520.666 611.077 505.431C611.228 501.025 610.478 498.04 608.911 495.723C607.343 493.41 604.656 491.468 601.145 489.452L592.635 485.046L584.124 489.452C580.614 491.468 577.999 493.41 576.359 495.723C574.864 498.035 574.119 501.025 574.27 505.431L574.343 507.598ZM730.476 704.944C730.404 681.95 729.878 658.575 730.628 635.804C730.924 626.096 729.284 619.45 725.7 614.154C722.044 608.852 716.367 604.747 708.826 600.342L690.008 590.633L671.191 600.342C663.722 604.67 658.05 608.779 654.467 614.003L654.316 614.154C651.629 618.112 650.061 622.815 649.535 628.941V641.258C649.983 662.316 649.535 683.821 649.535 704.952H730.472L730.476 704.944Z" fill="black"/>
    </svg>