<svg width="934" height="934" viewBox="0 0 934 934" fill="none" xmlns="http://www.w3.org/2000/svg">
    <path d="M528.091 169H528.838L528.931 169.105H529.487L529.58 169.209H529.764L529.857 169.312H530.135V169.417H530.32L530.413 169.521H530.506L530.598 169.626H530.691L530.784 169.731H530.968V169.835H531.061L531.246 170.044H531.339V170.149H531.431L531.524 170.254H531.617V170.358H531.709V170.463L553.615 189.61H591.255C594.192 189.61 596.467 192.176 596.467 195.49L606.706 427.844C606.799 431.157 604.622 433.836 601.68 434.045C598.835 434.15 596.368 431.694 596.275 428.486L586.321 201.366H557.021V302.352C557.021 305.665 554.653 308.232 551.808 308.232C548.872 308.232 546.596 305.665 546.596 302.352V198.364L533.514 186.918V302.352C533.514 330.486 539.87 358.304 550.202 383.012C561.392 409.651 577.127 432.756 594.576 448.485L823.276 680.726C825.459 682.866 825.551 686.606 823.653 689.069C822.608 690.351 821.186 690.993 819.763 690.993H585.086C582.527 690.993 580.344 688.851 579.967 686.076L532.65 491.698C526.87 468.058 522.411 451.902 516.34 439.388C510.559 427.299 503.158 418.315 491.591 408.792L467.508 389.002L443.426 408.792C431.859 418.314 424.464 427.299 418.583 439.388C412.611 451.902 408.061 468.058 402.373 491.698L395.547 519.622C397.821 516.197 400.097 512.884 402.564 509.675C414.509 493.735 428.636 481.004 444.193 474.372L444.385 474.267C460.219 467.529 477.475 467.096 495.399 475.872C503.27 479.722 511.234 485.394 519.295 492.99C521.478 495.132 521.663 498.87 519.864 501.333C517.967 503.795 514.652 504.004 512.469 501.975C505.26 495.019 498.15 489.99 491.231 486.573C476.06 479.192 461.455 479.512 448.089 485.289H447.897C434.054 491.281 421.348 502.833 410.442 517.271C400.012 531.07 391.289 547.547 384.655 564.448L355.069 686.083C354.692 688.867 352.51 691 349.95 691H115.171C113.749 691 112.42 690.358 111.382 689.076C109.39 686.613 109.582 682.873 111.759 680.733L340.459 448.492C357.907 432.769 373.649 409.658 384.833 383.019C395.17 358.303 401.519 330.493 401.519 302.359V186.925L388.437 198.371V302.359C388.437 305.672 386.07 308.239 383.225 308.239C380.381 308.239 378.014 305.672 378.014 302.359V201.373H348.713L338.758 428.493C338.567 431.703 336.198 434.164 333.355 434.053C330.418 433.836 328.236 431.166 328.327 427.852L338.474 195.497C338.474 192.183 340.842 189.617 343.785 189.617H381.424L403.332 170.47L403.709 170.044H403.801L403.987 169.835H404.079L404.171 169.731H404.264L404.356 169.626H404.449L404.542 169.521H404.634L404.727 169.417H404.82L405.012 169.312L405.296 169.208H405.481L405.673 169.103C405.958 169.103 406.335 169 406.718 169H527.994H528.091ZM305.926 611.472C307.54 608.69 310.761 607.943 313.136 609.764C315.504 611.472 316.265 615.114 314.651 617.786L279.093 679.297H346.034L374.481 562.476C374.481 561.939 374.674 561.297 374.858 560.767L374.951 560.551L392.399 488.771C398.371 464.168 403.114 447.265 409.563 433.892C416.204 420.095 424.451 410.037 437.442 399.447L464.367 377.195L464.459 377.092H464.552V376.987H464.645L464.737 376.883H464.83V376.778H464.923L465.016 376.674H465.108L465.201 376.569H465.292V376.464H465.478L465.571 376.36H465.756V376.255H466.034L466.127 376.151H466.404L466.496 376.046H466.873L466.966 375.941H468.098L468.19 376.046H468.567L468.659 376.151H468.943L469.036 376.255H469.314V376.36H469.5L469.592 376.464H469.778V376.569H469.87L469.963 376.674H470.055L470.147 376.778H470.24V376.883H470.333L470.425 376.987H470.518V377.092H470.611L470.703 377.195L497.629 399.447C510.619 410.037 518.867 420.096 525.507 433.892C531.956 447.265 536.698 464.168 542.671 488.771L589.036 679.297H655.884L620.42 617.786C618.805 615.114 619.473 611.474 621.934 609.764C624.302 607.943 627.53 608.697 629.144 611.473L668.399 679.297H725.862L637.868 569.969C635.971 567.507 636.07 563.767 638.245 561.626C640.329 559.485 643.649 559.596 645.547 562.052L739.89 679.299H806.172L587.8 457.527C569.306 440.625 552.527 416.232 540.768 387.995C529.768 361.787 523.035 332.258 523.035 302.41V180.774H411.905V302.41C411.905 332.258 405.172 361.779 394.172 387.995C382.411 416.239 365.633 440.626 347.14 457.527L128.768 679.299H194.955L311.964 533.913C313.862 531.562 317.175 531.345 319.265 533.592C321.448 535.732 321.541 539.472 319.643 541.83L209.081 679.3H266.546L305.801 611.475L305.926 611.472ZM630.208 542.79C632.199 545.253 632.007 548.991 629.923 551.133C627.74 553.275 624.52 553.163 622.529 550.707L615.419 541.827C613.429 539.478 613.62 535.731 615.703 533.589C617.886 531.342 621.199 531.56 623.098 533.91L630.208 542.79ZM422.266 197.897C422.266 194.583 424.541 192.017 427.479 192.017C430.322 192.017 432.69 194.585 432.69 197.897V223.253C432.69 226.462 430.322 229.133 427.479 229.133C424.541 229.133 422.266 226.462 422.266 223.253V197.897ZM442.273 197.897C442.273 194.583 444.641 192.017 447.485 192.017C450.422 192.017 452.696 194.585 452.696 197.897V223.253C452.696 226.462 450.422 229.133 447.485 229.133C444.641 229.133 442.273 226.462 442.273 223.253V197.897ZM462.373 197.897C462.373 194.583 464.741 192.017 467.585 192.017C470.429 192.017 472.796 194.585 472.796 197.897V223.253C472.796 226.462 470.429 229.133 467.585 229.133C464.741 229.133 462.373 226.462 462.373 223.253V197.897ZM482.473 197.897C482.473 194.583 484.749 192.017 487.685 192.017C490.529 192.017 492.896 194.585 492.896 197.897V223.253C492.896 226.462 490.529 229.133 487.685 229.133C484.749 229.133 482.473 226.462 482.473 223.253V197.897ZM502.48 197.897C502.48 194.583 504.847 192.017 507.692 192.017C510.628 192.017 512.903 194.585 512.903 197.897V223.253C512.903 226.462 510.628 229.133 507.692 229.133C504.847 229.133 502.48 226.462 502.48 223.253V197.897Z" fill="black"/>
    </svg>