<svg width="934" height="934" viewBox="0 0 934 934" fill="none" xmlns="http://www.w3.org/2000/svg">
    <path d="M195.742 564.533C195.742 567.349 193.398 569.694 190.583 569.694C187.769 569.694 185.425 567.349 185.425 564.533V459.011L182.702 449.62C174.821 422.205 180.823 402.114 194.243 385.591C207.191 369.822 226.993 357.805 247.638 345.878L296.903 320.344V267.297C296.903 264.481 299.155 262.137 302.062 262.137H337.535C340.441 262.137 342.693 264.481 342.693 267.297V273.872H358.273C361.179 273.872 363.431 276.217 363.431 279.033V307.854C363.431 310.67 361.179 313.015 358.273 313.015H322.799C319.893 313.015 317.641 310.67 317.641 307.854V301.187H307.226V320.343L356.59 345.976C377.146 357.901 396.848 369.821 409.803 385.689C423.223 402.121 429.232 422.212 421.344 449.627L418.621 459.018V582.563H489.659V433.379C489.659 430.563 492.003 428.219 494.818 428.219H777.842C780.657 428.219 783 430.563 783 433.379V719.831C783 722.738 780.657 724.991 777.842 724.991H648.151C645.336 724.991 642.992 722.738 642.992 719.831C642.992 717.015 645.336 714.67 648.151 714.67H672.927C672.927 675.238 671.893 634.774 673.209 595.434C673.582 584.261 671.991 575.813 668.705 569.055C665.517 562.388 660.444 557.13 653.688 552.159C651.345 550.47 650.874 547.28 652.563 544.929C654.251 542.676 657.439 542.205 659.789 543.803C667.861 549.717 673.962 556.193 677.993 564.55C682.026 572.815 683.904 582.861 683.433 595.723C682.117 634.874 683.342 675.43 683.342 714.678H715.81C715.718 675.156 714.684 634.689 716 595.442C716.471 581.545 714.029 571.97 708.865 564.367C703.706 556.764 695.537 550.85 684.748 544.557L657.72 530.569L630.79 544.557C619.995 550.851 611.741 556.764 606.576 564.367C601.418 571.971 598.976 581.545 599.441 595.442C600.757 636.372 599.631 678.626 599.631 719.748V719.839C599.631 722.747 597.379 725 594.473 725H157.158C154.343 725 152 722.747 152 719.839C152 717.023 154.343 714.679 157.158 714.679H185.496C185.588 697.783 186.059 680.317 185.496 663.511C185.214 655.528 186.713 649.804 189.81 645.018L190 644.736C193.096 640.322 197.416 637.034 202.948 633.753L216.086 626.713C217.683 625.868 219.463 625.868 220.962 626.713L234.192 633.753C239.822 637.133 244.142 640.42 247.238 645.116C250.335 649.811 251.834 655.535 251.65 663.519L251.559 666.053V714.686H282.527C282.619 697.79 282.999 680.324 282.527 663.518C282.246 655.535 283.745 649.811 286.841 645.025L287.123 644.743C290.127 640.329 294.441 637.041 299.979 633.76L313.117 626.72C314.714 625.876 316.495 625.876 317.994 626.72L331.223 633.76C336.853 637.14 341.265 640.427 344.27 645.123C347.366 649.818 348.865 655.542 348.682 663.526L348.59 666.06V714.693H379.559C379.65 697.797 380.03 680.331 379.559 663.526C379.277 655.542 380.776 649.819 383.873 645.032L384.154 644.75C387.159 640.336 391.473 637.048 397.011 633.767L410.148 626.727C411.746 625.883 413.618 625.883 415.025 626.727L428.255 633.767C433.884 637.147 438.296 640.434 441.301 645.13C444.398 649.825 445.897 655.549 445.713 663.533L445.622 666.068V714.7H476.682C476.774 697.804 477.154 680.338 476.591 663.533C476.309 655.549 477.808 649.826 481.003 645.039L481.193 644.757C484.197 640.343 488.511 637.056 494.049 633.775L507.279 626.735C508.778 625.89 510.656 625.89 512.064 626.735L525.293 633.775C530.923 637.154 535.335 640.442 538.34 645.137C541.436 649.833 543.033 655.556 542.752 663.54L542.66 666.075V714.707H589.301C589.392 675.368 590.427 634.901 589.209 595.753C588.646 579.511 591.742 568.056 598.125 558.666C604.415 549.373 613.606 542.615 625.717 535.666L655.37 520.178C656.869 519.424 658.656 519.523 660.063 520.178L689.907 535.666C701.919 542.614 711.116 549.465 717.4 558.666C723.783 568.057 726.788 579.603 726.316 595.753L726.126 601.385V714.708H772.675V438.684H542.756V587.778C542.756 590.594 540.504 592.939 537.598 592.939H157.16C154.345 592.939 152.002 590.594 152.002 587.778C152.002 584.962 154.345 582.618 157.16 582.618H408.294V489.485H195.737V517.463H205.687C207.186 517.463 208.593 518.216 209.536 519.244L223.8 533.514C225.77 535.485 225.77 538.773 223.8 540.744L209.346 555.296C208.312 556.331 207.003 556.796 205.687 556.796H195.737V564.589L195.742 564.533ZM499.981 582.563H532.45V438.636H499.981V582.563ZM577.12 523.976C577.12 526.792 574.776 529.137 571.962 529.137C569.055 529.137 566.803 526.792 566.803 523.976V464.453C566.803 461.637 569.055 459.292 571.962 459.292H743.613C746.428 459.292 748.771 461.637 748.771 464.453V523.976C748.771 526.792 746.428 529.137 743.613 529.137C740.706 529.137 738.454 526.792 738.454 523.976V469.613H577.133V523.976H577.12ZM629.952 714.648C632.859 714.648 635.111 716.992 635.111 719.808C635.111 722.716 632.859 724.969 629.952 724.969H625.73C622.915 724.969 620.572 722.716 620.572 719.808C620.572 716.992 622.915 714.648 625.73 714.648H629.952ZM195.738 527.715V546.4H203.528L212.915 537.107L203.528 527.716L195.738 527.715ZM274.665 517.387H303.284L316.513 508.939C318.294 507.813 320.454 507.904 322.051 508.939L335.281 517.387H363.9C365.497 517.387 366.905 518.14 367.841 519.169L382.013 533.439C384.075 535.41 384.075 538.697 382.013 540.669L367.559 555.221C366.525 556.255 365.216 556.72 363.9 556.72H335.281L322.051 565.267C320.363 566.393 318.111 566.301 316.513 565.267L303.284 556.72H274.665C273.257 556.72 271.942 556.157 271.005 555.221L256.552 540.76C254.49 538.697 254.49 535.41 256.552 533.439L271.005 518.979C272.04 517.944 273.349 517.479 274.665 517.381V517.387ZM304.79 527.715H276.734L267.445 537.106L276.833 546.399H304.798C305.734 546.399 306.769 546.681 307.613 547.244L319.252 554.756L330.701 547.434C331.545 546.779 332.671 546.399 333.797 546.399H361.853L371.142 537.106L361.853 527.715H333.797C332.861 527.715 331.918 527.433 330.982 526.962L319.252 519.359L307.894 526.779C307.05 527.342 305.924 527.715 304.798 527.715H304.79ZM510.125 349.902H464.237C461.422 349.902 459.079 347.558 459.079 344.742C459.079 341.926 461.422 339.581 464.237 339.581H514.445V296.3H446.222V343.243L461.049 366.151H471.182C473.997 366.151 476.341 368.404 476.341 371.312C476.341 374.128 473.997 376.472 471.182 376.472H463.301L462.646 391.869H498.493L497.839 372.713C497.184 371.213 497.367 369.523 498.31 368.017L510.132 349.895L510.125 349.902ZM408.301 479.087V463.501H195.743V479.087H408.301ZM409.616 453.173L411.495 446.788C418.251 423.224 413.184 406.139 401.827 392.143C390.004 377.683 371.23 366.229 351.436 354.874L302.072 329.242L252.525 354.874C232.815 366.236 214.147 377.69 202.225 392.143C190.868 406.04 185.899 423.218 192.655 446.788L194.435 453.173H409.616ZM476.812 491.95C479.627 491.95 481.97 494.294 481.97 497.11C481.97 500.018 479.627 502.271 476.812 502.271H458.327L455.885 564.892C455.695 567.8 453.352 569.961 450.537 569.87C447.63 569.778 445.47 567.335 445.562 564.519L453.07 372.708L436.928 347.92V347.828C436.273 346.984 435.893 345.857 435.893 344.731V296.287H431.2C428.293 296.287 426.041 293.943 426.041 291.127C426.041 288.311 428.293 285.966 431.2 285.966H460.107L462.549 225.316C462.549 220.437 464.519 216.023 467.805 212.828C469.776 210.765 472.309 209.258 475.124 208.322V183.161C475.124 180.253 477.467 178 480.282 178C483.189 178 485.44 180.253 485.44 183.161V208.412C488.255 209.257 490.788 210.757 492.857 212.826C496.045 216.016 498.015 220.43 498.015 225.315L500.549 285.965H529.456C532.271 285.965 534.614 288.31 534.614 291.126C534.614 293.942 532.271 296.286 529.456 296.286H524.762V345.187L524.671 345.279V345.829H524.579V346.196H524.487V346.471H524.396V346.654H524.304V346.838H524.212V347.021L524.121 347.113V347.204H524.029V347.388H523.938V347.479L523.846 347.571V347.663H523.754V347.754H523.663V347.846L508.083 371.881L509.582 411.874C509.674 414.782 507.422 417.133 504.607 417.225C501.7 417.317 499.35 415.064 499.259 412.248L498.886 402.11H462.286L459.753 465.949H476.831C479.646 465.949 481.989 468.293 481.989 471.109C481.989 474.017 479.646 476.27 476.831 476.27H459.379L458.725 491.856H476.838L476.812 491.95ZM480.661 217.904L480.288 217.996L480.007 217.904C478.036 217.996 476.347 218.841 475.13 220.066C473.722 221.474 472.878 223.353 472.878 225.324V225.979L470.436 284.187H490.147L487.705 225.319C487.705 223.347 486.861 221.468 485.545 220.06C484.229 218.842 482.54 217.997 480.668 217.899L480.661 217.904ZM494.834 309.255C494.834 306.439 497.085 304.095 499.992 304.095C502.807 304.095 505.15 306.439 505.15 309.255V327.003C505.15 329.819 502.807 332.163 499.992 332.163C497.085 332.163 494.834 329.819 494.834 327.003V309.255ZM475.123 309.255C475.123 306.439 477.466 304.095 480.281 304.095C483.188 304.095 485.439 306.439 485.439 309.255V327.003C485.439 329.819 483.187 332.163 480.281 332.163C477.466 332.163 475.123 329.819 475.123 327.003V309.255ZM455.511 309.255C455.511 306.439 457.763 304.095 460.669 304.095C463.484 304.095 465.828 306.439 465.828 309.255V327.003C465.828 329.819 463.484 332.163 460.669 332.163C457.763 332.163 455.511 329.819 455.511 327.003V309.255ZM327.975 296.203V302.68H353.125V284.277H342.711V289.254C342.711 292.07 340.459 294.414 337.552 294.414C334.738 294.414 332.394 292.07 332.394 289.254V272.45H307.244V290.853H322.824C325.638 290.853 327.982 293.198 327.982 296.014V296.204L327.975 296.203ZM262.468 380.795C260.027 382.112 256.839 381.267 255.523 378.733C254.116 376.29 255.052 373.1 257.585 371.784L262.462 369.06C264.904 367.652 268.092 368.588 269.407 371.031C270.815 373.565 269.879 376.663 267.437 378.071L262.462 380.795H262.468ZM220.894 427.175C220.894 430.083 218.55 432.336 215.735 432.336C212.829 432.336 210.479 430.083 210.479 427.175C210.479 414.031 213.012 405.766 218.177 399.107C223.152 392.63 230.281 388.307 239.859 382.773C242.3 381.365 245.397 382.21 246.896 384.653C248.303 387.096 247.459 390.285 244.925 391.693C236.481 396.67 230.098 400.423 226.341 405.4C222.681 410.096 220.901 416.573 220.901 427.182L220.894 427.175ZM228.965 642.542L218.55 637.001L208.136 642.542C203.822 645.168 200.627 647.519 198.565 650.427L198.474 650.708C196.503 653.616 195.567 657.565 195.751 663.197C196.313 680.192 195.842 697.651 195.842 714.646H241.264C241.264 697.651 240.793 680.192 241.356 663.197C241.546 657.565 240.603 653.623 238.633 650.708C236.663 647.702 233.377 645.168 228.965 642.542ZM325.997 642.542L315.582 637.001L305.167 642.542C300.945 645.168 297.659 647.519 295.597 650.427L295.505 650.708C293.535 653.616 292.599 657.565 292.782 663.197C293.345 680.192 292.874 697.651 292.874 714.646H338.296C338.296 697.651 337.923 680.192 338.388 663.197C338.578 657.565 337.635 653.623 335.763 650.708C333.701 647.702 330.415 645.168 326.003 642.542L325.997 642.542ZM423.028 642.542L412.614 637.001L402.199 642.542C397.977 645.168 394.69 647.519 392.72 650.427L392.53 650.708C390.56 653.616 389.624 657.565 389.807 663.197C390.37 680.192 389.899 697.651 389.899 714.646H435.321C435.321 697.651 434.948 680.192 435.413 663.197C435.603 657.565 434.66 653.623 432.788 650.708C430.726 647.702 427.44 645.168 423.028 642.542ZM520.06 642.542L509.645 637.001L499.322 642.542C495.008 645.168 491.722 647.519 489.752 650.427L489.562 650.708C487.591 653.616 486.655 657.565 486.839 663.197C487.402 680.192 487.029 697.651 487.029 714.646H532.354C532.354 697.651 531.882 680.192 532.445 663.197C532.635 657.565 531.692 653.623 529.82 650.708C527.85 647.702 524.472 645.168 520.06 642.542ZM356.585 345.964C358.928 347.372 359.773 350.28 358.464 352.722L356.585 345.964Z" fill="black"/>
    </svg>
