<?xml version="1.0" encoding="iso-8859-1"?>
<!-- Generator: Adobe Illustrator 19.0.0, SVG Export Plug-In . SVG Version: 6.00 Build 0)  -->
<svg version="1.1" id="Layer_1" xmlns="http://www.w3.org/2000/svg" xmlns:xlink="http://www.w3.org/1999/xlink" x="0px" y="0px"
	 viewBox="0 0 512 512" style="enable-background:new 0 0 512 512;" xml:space="preserve">
<g>
	<g>
		<path d="M503.551,434.156h-40.02v-18.484c8.878-3.411,15.208-12.005,15.208-22.07v-8.449c0-13.045-10.612-23.657-23.657-23.657
			s-23.657,10.612-23.657,23.657v8.449c0,10.065,6.329,18.659,15.208,22.07v18.484h-14.617
			c-16.918-24.28-31.966-50.931-44.846-79.423h3.104c4.667,0,8.449-3.783,8.449-8.449c0-4.666-3.782-8.449-8.449-8.449h-10.379
			c-9.536-23.122-17.847-47.671-24.755-73.227h0.587c4.667,0,8.449-3.783,8.449-8.449c0-4.666-3.782-8.449-8.449-8.449h-4.919
			c-0.069-0.284-0.142-0.57-0.211-0.854c-17.062-70.743-20.782-136.279-20.899-178.799c-0.012-4.555-3.63-8.25-8.144-8.411V37.66
			c0-4.666-3.782-8.449-8.449-8.449s-8.449,3.783-8.449,8.449v21.984c-4.515,0.161-8.133,3.856-8.145,8.411
			c-0.117,42.521-3.837,108.057-20.899,178.8c-0.069,0.283-0.142,0.57-0.211,0.853h-4.914c-4.667,0-8.449,3.783-8.449,8.449
			c0,4.666,3.782,8.449,8.449,8.449h0.582c-6.907,25.55-15.218,50.101-24.756,73.227h-10.375c-4.667,0-8.449,3.783-8.449,8.449
			c0,4.666,3.782,8.449,8.449,8.449h3.099c-12.879,28.491-27.928,55.142-44.846,79.423h-26.367v-18.484
			c8.878-3.411,15.209-12.005,15.209-22.071v-8.449c0-13.044-10.613-23.657-23.658-23.657s-23.657,10.612-23.657,23.657v8.449
			c0,10.065,6.329,18.659,15.208,22.071v18.484h-36.331v-18.484c8.878-3.411,15.207-12.005,15.207-22.071v-8.449
			c0-13.044-10.612-23.657-23.657-23.657s-23.658,10.612-23.658,23.657v8.449c0,10.065,6.33,18.659,15.209,22.071v18.484H61.366
			v-18.484c8.878-3.411,15.209-12.005,15.209-22.071v-8.449c0-13.044-10.613-23.657-23.658-23.657S29.26,372.107,29.26,385.152
			v8.449c0,10.065,6.329,18.659,15.208,22.071v18.484H8.449c-4.667,0-8.449,3.783-8.449,8.449c0,4.666,3.782,8.45,8.449,8.45
			h495.102c4.667,0,8.449-3.783,8.449-8.449C512,437.939,508.218,434.156,503.551,434.156z M59.676,393.602
			c0,3.727-3.032,6.758-6.759,6.758c-3.727,0-6.758-3.032-6.758-6.758v-8.449c0-3.727,3.032-6.758,6.758-6.758
			c3.728,0,6.759,3.032,6.759,6.758V393.602z M112.903,393.602c0,3.727-3.032,6.758-6.758,6.758c-3.728,0-6.759-3.032-6.759-6.758
			v-8.449c0-3.727,3.032-6.758,6.759-6.758c3.727,0,6.758,3.032,6.758,6.758V393.602z M166.131,393.602
			c0,3.727-3.032,6.758-6.759,6.758c-3.727,0-6.758-3.032-6.758-6.758v-8.449c0-3.727,3.032-6.758,6.758-6.758
			c3.728,0,6.759,3.032,6.759,6.758V393.602z M313.102,88.046c1.156,41.958,5.948,98.807,20.33,159.664h-40.66
			C307.152,186.853,311.944,130.004,313.102,88.046z M288.536,264.608h49.131c6.696,25.45,14.725,50.006,23.976,73.227h-14.465
			l-15.622-57.964c-0.994-3.688-4.338-6.25-8.157-6.25h-20.588c-3.82,0-7.164,2.562-8.157,6.25l-15.622,57.964h-14.469
			C273.812,314.611,281.841,290.055,288.536,264.608z M329.676,337.834h-33.147l12.753-47.316h7.641L329.676,337.834z
			 M254.283,434.156c3.108-29.711,28.299-52.949,58.819-52.949s55.711,23.238,58.819,52.949H254.283z M388.895,434.155
			c-3.163-39.043-35.949-69.847-75.793-69.847c-39.844,0-72.631,30.804-75.793,69.847h-22.687
			c16.188-24.492,30.549-51.138,42.874-79.423h111.211c12.323,28.286,26.686,54.932,42.874,79.423H388.895z M461.839,393.602
			c0,3.727-3.032,6.758-6.758,6.758c-3.727,0-6.758-3.032-6.758-6.758v-8.449c0-3.727,3.032-6.758,6.758-6.758
			c3.727,0,6.758,3.032,6.758,6.758V393.602z"/>
	</g>
</g>
<g>
	<g>
		<path d="M503.551,466.261H8.449c-4.667,0-8.449,3.783-8.449,8.449c0,4.666,3.782,8.449,8.449,8.449h495.102
			c4.667,0,8.449-3.783,8.449-8.449C512,470.044,508.217,466.261,503.551,466.261z"/>
	</g>
</g>
<g>
	<g>
		<path d="M132.787,28.841c-35.872,0-65.056,29.184-65.056,65.057c0,35.873,29.184,65.056,65.056,65.056
			c35.873,0,65.057-29.184,65.057-65.057C197.844,58.023,168.66,28.841,132.787,28.841z M132.787,142.056
			c-26.554,0-48.157-21.603-48.157-48.158s21.603-48.158,48.157-48.158s48.158,21.603,48.158,48.158
			S159.341,142.056,132.787,142.056z"/>
	</g>
</g>
<g>
</g>
<g>
</g>
<g>
</g>
<g>
</g>
<g>
</g>
<g>
</g>
<g>
</g>
<g>
</g>
<g>
</g>
<g>
</g>
<g>
</g>
<g>
</g>
<g>
</g>
<g>
</g>
<g>
</g>
</svg>
